<?xml version="1.0" encoding="UTF-8"?>
<svg xmlns="http://www.w3.org/2000/svg" viewBox="0 0 24 24" width="24" height="24" fill="#ffffff">
  <!-- Solid Hogwarts keep from braille silhouette (for-grok/hogwarts-ascii.txt). -->
  <path d="M0.98 15.65h2.20v0.22h-2.20zM0.98 16.82h3.68v0.22h-3.68zM0.98 15.83h3.86v1.03h-3.86zM1.04 15.46h2.14v0.22h-2.14zM1.04 17.00h3.61v0.41h-3.61zM1.23 13.61h1.95v0.66h-1.95zM1.23 14.54h1.95v0.96h-1.95zM1.23 17.37h3.43v0.22h-3.43zM1.41 13.24h1.58v0.41h-1.58zM1.41 14.23h1.77v0.35h-1.77zM1.41 17.56h3.24v0.53h-3.24zM1.41 18.67h3.24v0.53h-3.24zM1.41 18.05h3.43v0.66h-3.43zM1.41 19.16h3.43v0.59h-3.43zM1.41 19.71h17.85v0.22h-17.85zM1.41 19.90h18.03v0.41h-18.03zM1.41 21.25h21.18v1.21h-21.18zM1.41 21.07h21.36v0.22h-21.36zM1.41 20.88h21.55v0.22h-21.55zM1.41 20.27h21.61v0.66h-21.61zM1.60 12.50h1.21v0.41h-1.21zM1.60 12.87h1.40v0.41h-1.40zM1.78 11.76h0.84v0.59h-0.84zM1.78 12.32h1.03v0.22h-1.03zM1.97 10.84h0.47v0.78h-0.47zM1.97 11.58h0.66v0.22h-0.66zM3.26 14.54h1.21v0.22h-1.21zM3.26 14.72h1.40v1.15h-1.40zM3.44 13.98h1.03v0.59h-1.03zM3.63 13.06h0.47v0.22h-0.47zM3.63 13.24h0.66v0.78h-0.66zM4.92 18.30h2.14v0.53h-2.14zM4.92 18.11h3.24v0.22h-3.24zM4.92 17.93h13.97v0.22h-13.97zM4.92 18.79h13.97v0.41h-13.97zM4.92 16.57h14.15v1.40h-14.15zM4.92 19.16h14.15v0.41h-14.15zM4.92 19.53h14.34v0.22h-14.34zM5.11 15.83h13.78v0.41h-13.78zM5.11 16.20h13.97v0.41h-13.97zM5.29 15.09h13.60v0.78h-13.60zM5.48 14.41h13.41v0.72h-13.41zM5.48 14.35h13.60v0.10h-13.60zM5.66 14.17h13.41v0.22h-13.41zM6.59 9.36h3.06v0.47h-3.06zM6.77 12.32h2.69v0.22h-2.69zM6.77 9.18h2.87v0.22h-2.87zM6.77 9.79h2.87v0.78h-2.87zM6.77 12.50h2.87v0.66h-2.87zM6.96 7.70h2.32v0.47h-2.32zM6.96 8.99h2.50v0.22h-2.50zM6.96 10.53h2.50v1.83h-2.50zM6.96 13.12h2.50v0.16h-2.50zM6.96 13.24h9.53v0.22h-9.53zM6.96 13.43h11.93v0.59h-11.93zM6.96 13.98h12.12v0.22h-12.12zM7.14 18.30h1.03v0.53h-1.03zM7.14 7.33h2.14v0.41h-2.14zM7.14 8.13h2.14v0.59h-2.14zM7.14 8.81h2.14v0.22h-2.14zM7.33 6.77h1.77v0.59h-1.77zM7.33 8.68h1.77v0.16h-1.77zM7.51 6.40h1.40v0.41h-1.40zM7.70 6.03h1.03v0.41h-1.03zM7.88 5.48h0.47v0.22h-0.47zM7.88 5.66h0.66v0.41h-0.66zM8.25 18.11h1.03v0.72h-1.03zM9.36 18.30h1.03v0.53h-1.03zM9.36 18.11h9.53v0.22h-9.53zM10.47 18.30h8.42v0.53h-8.42zM10.66 12.87h5.83v0.41h-5.83zM10.84 8.44h1.58v0.22h-1.58zM10.84 9.42h1.58v0.72h-1.58zM10.84 8.62h3.80v0.41h-3.80zM10.84 8.99h5.28v0.22h-5.28zM10.84 9.18h5.46v0.29h-5.46zM10.84 10.10h5.46v2.44h-5.46zM10.84 12.50h5.65v0.41h-5.65zM11.02 7.14h1.21v0.41h-1.21zM11.02 7.94h1.21v0.53h-1.21zM11.02 7.51h1.40v0.47h-1.40zM11.21 6.59h0.84v0.22h-0.84zM11.21 6.77h1.03v0.41h-1.03zM11.39 5.48h0.47v0.59h-0.47zM11.39 6.03h0.66v0.59h-0.66zM12.32 6.03h2.50v0.47h-2.50zM12.50 4.74h2.14v0.41h-2.14zM12.50 5.73h2.14v0.35h-2.14zM12.50 6.65h2.14v2.01h-2.14zM12.50 5.11h2.32v0.66h-2.32zM12.50 6.46h2.32v0.22h-2.32zM12.50 9.42h3.80v0.72h-3.80zM12.69 4.25h1.77v0.35h-1.77zM12.69 4.55h1.95v0.22h-1.95zM12.69 4.18h3.06v0.10h-3.06zM12.87 4.00h2.87v0.22h-2.87zM13.06 2.71h1.03v0.84h-1.03zM13.24 1.78h0.66v0.78h-0.66zM13.24 2.52h0.84v0.22h-0.84zM13.43 1.53h0.47v0.29h-0.47zM14.35 3.63h1.40v0.41h-1.40zM14.54 3.26h1.21v0.41h-1.21zM14.72 8.25h1.58v0.47h-1.58zM14.91 7.70h1.21v0.59h-1.21zM14.91 8.68h1.21v0.35h-1.21zM15.09 6.96h0.84v0.78h-0.84zM15.28 6.40h0.47v0.59h-0.47zM17.50 13.06h1.40v0.41h-1.40zM17.68 12.50h1.03v0.22h-1.03zM17.68 12.69h1.21v0.41h-1.21zM17.87 12.13h0.66v0.22h-0.66zM17.87 12.32h0.84v0.22h-0.84zM18.05 11.95h0.47v0.22h-0.47zM19.53 20.08h0.47v0.22h-0.47zM20.08 17.87h2.69v0.84h-2.69zM20.08 20.08h2.94v0.22h-2.94zM20.27 17.50h2.32v0.41h-2.32zM20.27 18.67h2.32v0.16h-2.32zM20.27 18.79h2.50v0.22h-2.50zM20.27 18.97h2.69v0.22h-2.69zM20.27 19.16h2.75v0.96h-2.75zM20.45 17.13h1.95v0.41h-1.95zM20.64 16.76h1.40v0.22h-1.40zM20.64 16.94h1.58v0.22h-1.58zM20.82 16.39h1.03v0.22h-1.03zM20.82 16.57h1.21v0.22h-1.21zM21.01 16.20h0.84v0.22h-0.84zM21.19 15.83h0.47v0.41h-0.47z"/>
</svg>
